name not saved
datacolumns 19
datarows 57
range 23.027 23.083
endheader
time	ground_force1_vx	ground_force1_vy	ground_force1_vz	ground_force1_px	ground_force1_py	ground_force1_pz	ground_force2_vx	ground_force2_vy	ground_force2_vz	ground_force2_px	ground_force2_py	ground_force2_pz	ground_torque1_x	ground_torque1_y	ground_torque1_z	ground_torque2_x	ground_torque2_y	ground_torque2_z
23.027	3.736725123	482.8581762	-52.55872682	0.08586724014	0	0.2097231777	-0.5615632591	376.6209089	49.9348906	0.08033425899	0	-0.2886657162	0	-0.9597276348	0	0	-1.454753408	0
23.028	3.784469334	482.8191598	-52.53858714	0.08578480005	0	0.209704004	-0.5104947983	376.7891262	50.01374633	0.08028304588	0	-0.2886723512	0	-0.9610471579	0	0	-1.454139741	0
23.029	3.831298271	482.7809837	-52.51890863	0.08570370264	0	0.2096849869	-0.4606968115	376.956609	50.0919411	0.08023255123	0	-0.2886790623	0	-0.9622681509	0	0	-1.453681193	0
23.03	3.877197642	482.7436614	-52.49971332	0.08562396342	0	0.2096661256	-0.4122051368	377.1232835	50.16942955	0.08018278513	0	-0.2886858458	0	-0.9633869545	0	0	-1.453378644	0
23.031	3.922153474	482.7072052	-52.48102217	0.0855455974	0	0.2096474195	-0.3650540406	377.2890783	50.24616841	0.08013375744	0	-0.2886926982	0	-0.9643998541	0	0	-1.45323295	0
23.032	3.966152139	482.6716271	-52.4628551	0.08546861904	0	0.2096288684	-0.3192761918	377.4539248	50.32211652	0.08008547777	0	-0.2886996162	0	-0.9653030875	0	0	-1.45324495	0
23.033	4.009180377	482.6369381	-52.44523097	0.08539304224	0	0.2096104724	-0.274902638	377.6177569	50.39723484	0.0800379555	0	-0.2887065966	0	-0.9660928534	0	0	-1.453415463	0
23.034	4.051225321	482.6031488	-52.42816763	0.08531888033	0	0.2095922321	-0.2319627855	377.780511	50.47148647	0.07999119975	0	-0.2887136366	0	-0.9667653196	0	0	-1.453745297	0
23.035	4.092274524	482.5702693	-52.41168187	0.08524614607	0	0.2095741481	-0.1904843823	377.9421261	50.54483671	0.07994521941	0	-0.2887207333	0	-0.9673166316	0	0	-1.454235243	0
23.036	4.132315979	482.5383092	-52.39578952	0.08517485161	0	0.2095562215	-0.1504935034	378.1025438	50.61725301	0.07990002313	0	-0.2887278842	0	-0.9677429212	0	0	-1.454886083	0
23.037	4.171338149	482.5072778	-52.38050538	0.08510500852	0	0.2095384536	-0.1120145394	378.261708	50.68870504	0.07985561928	0	-0.2887350869	0	-0.9680403149	0	0	-1.45569859	0
23.038	4.20932999	482.4771841	-52.36584331	0.08503662774	0	0.2095208462	-0.07507018735	378.4195653	50.75916465	0.07981201601	0	-0.2887423394	0	-0.9682049431	0	0	-1.456673525	0
23.039	4.246280975	482.4480368	-52.35181623	0.08496971964	0	0.209503401	-0.03968144527	378.5760646	50.82860588	0.07976922119	0	-0.2887496395	0	-0.9682329484	0	0	-1.457811641	0
23.04	4.282181117	482.4198447	-52.33843612	0.08490429393	0	0.2094861203	-0.005867608011	378.7311575	50.89700497	0.07972724246	0	-0.2887569855	0	-0.9681204943	0	0	-1.459113683	0
23.041	4.317020999	482.3926163	-52.32571411	0.08484035973	0	0.2094690064	0.02635373349	378.8847976	50.96434032	0.07968608716	0	-0.2887643759	0	-0.9678637738	0	0	-1.460580386	0
23.042	4.350791789	482.3663603	-52.31366046	0.08477792556	0	0.209452062	0.05696669074	379.0369411	51.03059251	0.07964576238	0	-0.2887718092	0	-0.9674590182	0	0	-1.462212473	0
23.043	4.383485268	482.3410853	-52.30228461	0.08471699929	0	0.20943529	0.08595707383	379.1875468	51.09574424	0.07960627494	0	-0.2887792842	0	-0.9669025052	0	0	-1.46401066	0
23.044	4.415093851	482.3168002	-52.29159523	0.0846575882	0	0.2094186934	0.1133123851	379.3365754	51.15978035	0.07956763137	0	-0.2887868	0	-0.9661905677	0	0	-1.465975645	0
23.045	4.445610606	482.293514	-52.28160024	0.08459969895	0	0.2094022755	0.1390218104	379.48399	51.22268776	0.07952983793	0	-0.2887943556	0	-0.9653196016	0	0	-1.468108117	0
23.046	4.475029275	482.2712361	-52.27230687	0.08454333759	0	0.2093860396	0.1630762087	379.6297561	51.28445544	0.07949290057	0	-0.2888019506	0	-0.9642860745	0	0	-1.470408746	0
23.047	4.503344289	482.2499762	-52.26372168	0.08448850956	0	0.2093699893	0.1854680983	379.7738414	51.3450744	0.07945682497	0	-0.2888095843	0	-0.9630865332	0	0	-1.472878184	0
23.048	4.53055079	482.2297444	-52.25585061	0.0844352197	0	0.2093541283	0.2061916423	379.9162156	51.4045376	0.07942161646	0	-0.2888172567	0	-0.9617176117	0	0	-1.475517064	0
23.049	4.556644639	482.2105512	-52.24869905	0.08438347227	0	0.2093384605	0.2252426308	380.0568507	51.46283996	0.07938728011	0	-0.2888249674	0	-0.9601760392	0	0	-1.478325995	0
23.05	4.581622435	482.1924079	-52.24227186	0.08433327091	0	0.2093229896	0.2426184618	380.1957207	51.51997829	0.07935382064	0	-0.2888327168	0	-0.9584586472	0	0	-1.481305562	0
23.051	4.605481522	482.175326	-52.23657341	0.08428461868	0	0.2093077197	0.2583181199	380.3328018	51.57595123	0.07932124246	0	-0.2888405049	0	-0.9565623767	0	0	-1.484456322	0
23.052	4.628219998	482.1593178	-52.23160764	0.08423751807	0	0.2092926547	0.2723421528	380.4680723	51.63075922	0.07928954963	0	-0.2888483323	0	-0.9544842859	0	0	-1.487778801	0
23.053	4.649836726	482.1443964	-52.22737813	0.08419197096	0	0.2092777987	0.2846926465	380.6015122	51.68440441	0.07925874589	0	-0.2888561995	0	-0.9522215561	0	0	-1.491273491	0
23.054	4.670331333	482.1305753	-52.2238881	0.08414797866	0	0.2092631558	0.2953731983	380.7331037	51.73689063	0.0792288346	0	-0.2888641073	0	-0.9497714991	0	0	-1.494940849	0
23.055	4.689704216	482.117869	-52.22114049	0.08410554191	0	0.2092487301	0.3043888882	380.862831	51.78822333	0.0791998188	0	-0.2888720565	0	-0.9471315627	0	0	-1.49878129	0
23.056	4.707956543	482.1062927	-52.21913801	0.08406466088	0	0.2092345255	0.3117462495	380.99068	51.8384095	0.07917170113	0	-0.2888800482	0	-0.9442993373	0	0	-1.50279519	0
23.057	4.725090247	482.0958624	-52.21788316	0.08402533515	0	0.209220546	0.3174532365	381.1166386	51.88745762	0.07914448387	0	-0.2888880836	0	-0.9412725608	0	0	-1.506982876	0
23.058	4.741108027	482.0865949	-52.2173783	0.08398756375	0	0.2092067955	0.3215191926	381.2406964	51.93537756	0.07911816891	0	-0.2888961639	0	-0.9380491244	0	0	-1.511344628	0
23.059	4.756013337	482.078508	-52.2176257	0.0839513451	0	0.209193278	0.3239548156	381.3628449	51.98218059	0.07909275777	0	-0.2889042906	0	-0.934627077	0	0	-1.515880672	0
23.06	4.769810382	482.0716201	-52.21862754	0.0839166771	0	0.209179997	0.3247721232	381.4830773	52.02787921	0.07906825153	0	-0.2889124653	0	-0.9310046297	0	0	-1.520591178	0
23.061	4.782504105	482.0659506	-52.22038601	0.08388355704	0	0.2091669563	0.3239844167	381.6013885	52.07248716	0.07904465088	0	-0.2889206895	0	-0.9271801597	0	0	-1.525476255	0
23.062	4.794100178	482.0615198	-52.22290332	0.08385198163	0	0.2091541592	0.3216062444	381.7177751	52.11601931	0.07902195608	0	-0.2889289651	0	-0.9231522136	0	0	-1.530535952	0
23.063	4.804604986	482.058349	-52.22618172	0.08382194704	0	0.209141609	0.317653364	381.8322354	52.15849162	0.07900016699	0	-0.2889372938	0	-0.9189195104	0	0	-1.535770245	0
23.064	4.814025615	482.0564599	-52.23022358	0.08379344884	0	0.2091293089	0.3121427044	381.9447692	52.19992101	0.078979283	0	-0.2889456776	0	-0.9144809438	0	0	-1.541179043	0
23.065	4.822369835	482.0558755	-52.23503141	0.08376648201	0	0.2091172619	0.3050923275	382.055378	52.24032537	0.07895930305	0	-0.2889541185	0	-0.9098355845	0	0	-1.546762175	0
23.066	4.829646083	482.0566194	-52.24060787	0.08374104095	0	0.2091054705	0.2965213893	382.1640648	52.27972342	0.07894022567	0	-0.2889626184	0	-0.9049826808	0	0	-1.552519391	0
23.067	4.835863448	482.058716	-52.24695582	0.08371711948	0	0.2090939374	0.2864501011	382.2708341	52.31813468	0.07892204888	0	-0.2889711795	0	-0.8999216602	0	0	-1.558450355	0
23.068	4.84103165	482.0621904	-52.25407836	0.08369471083	0	0.2090826647	0.2748996904	382.3756919	52.35557937	0.07890477025	0	-0.288979804	0	-0.8946521292	0	0	-1.564554643	0
23.069	4.845161023	482.0670686	-52.26197882	0.08367380762	0	0.2090716545	0.2618923623	382.4786457	52.39207838	0.07888838689	0	-0.2889884938	0	-0.8891738732	0	0	-1.570831734	0
23.07	4.848262496	482.073377	-52.27066083	0.08365440188	0	0.2090609084	0.2474512604	382.5797043	52.42765316	0.07887289541	0	-0.2889972513	0	-0.883486856	0	0	-1.577281009	0
23.071	4.850347575	482.0811429	-52.28012828	0.08363648504	0	0.209050428	0.231600429	382.6788781	52.46232568	0.07885829194	0	-0.2890060785	0	-0.877591218	0	0	-1.583901745	0
23.072	4.851428323	482.0903938	-52.29038541	0.08362004791	0	0.2090402143	0.2143647744	382.7761788	52.49611836	0.07884457211	0	-0.2890149776	0	-0.8714872749	0	0	-1.590693111	0
23.073	4.85151734	482.101158	-52.30143676	0.08360508069	0	0.2090302681	0.195770028	382.8716193	52.52905399	0.07883173107	0	-0.2890239507	0	-0.8651755153	0	0	-1.597654161	0
23.074	4.850627749	482.113464	-52.3132872	0.08359157296	0	0.20902059	0.1758427087	382.9652141	52.56115567	0.07881976344	0	-0.2890330001	0	-0.8586565985	0	0	-1.604783834	0
23.075	4.84877317	482.1273408	-52.32594197	0.08357951369	0	0.2090111802	0.1546100863	383.0569788	52.59244677	0.07880866337	0	-0.2890421276	0	-0.851931351	0	0	-1.612080946	0
23.076	4.845967711	482.1428175	-52.33940664	0.08356889121	0	0.2090020384	0.1321001459	383.1469305	52.62295086	0.07879842447	0	-0.2890513353	0	-0.8450007637	0	0	-1.61954419	0
23.077	4.84222594	482.1599235	-52.35368715	0.08355969323	0	0.2089931642	0.1083415523	383.2350874	52.65269161	0.07878903985	0	-0.2890606251	0	-0.8378659882	0	0	-1.627172127	0
23.078	4.837562879	482.1786881	-52.36878976	0.08355190679	0	0.2089845566	0.08336361483	383.3214689	52.68169281	0.07878050214	0	-0.2890699989	0	-0.8305283337	0	0	-1.63496319	0
23.079	4.831993976	482.1991409	-52.38472112	0.08354551832	0	0.2089762145	0.0571962538	383.4060959	52.70997825	0.0787728034	0	-0.2890794585	0	-0.8229892629	0	0	-1.642915675	0
23.08	4.825535096	482.221311	-52.40148819	0.08354051358	0	0.2089681362	0.0298699664	383.4889905	52.73757169	0.07876593523	0	-0.2890890055	0	-0.8152503883	0	0	-1.651027743	0
23.081	4.8182025	482.2452277	-52.41909825	0.08353687767	0	0.2089603198	0.001415793876	383.5701758	52.76449681	0.0787598887	0	-0.2890986415	0	-0.807313469	0	0	-1.659297412	0
23.082	4.810012832	482.2709195	-52.43755893	0.08353459502	0	0.2089527628	-0.0281347109	383.6496763	52.79077718	0.07875465436	0	-0.2891083679	0	-0.7991804071	0	0	-1.667722566	0
23.083	4.800983099	482.2984148	-52.45687814	0.08353364938	0	0.2089454625	-0.0587495153	383.7275178	52.81643616	0.07875022228	0	-0.289118186	0	-0.7908532446	0	0	-1.676300941	0
